<svg width="60" height="64" viewBox="0 0 60 64" fill="none" xmlns="http://www.w3.org/2000/svg">
<g clip-path="url(#clip0_181_33905)">
<path d="M59.5 5.76333V20.5653H26.8037L19.5519 40.51L34.2732 0H53.7604C56.9281 0 59.5 2.58 59.5 5.76333Z" fill="url(#paint0_linear_181_33905)"/>
<path d="M51.1369 64.0004H16.9914C16.6706 64.0004 16.3441 63.9889 16.0291 63.9659L30.5499 50.6464L30.5614 50.6579L41.5652 40.5391L51.1369 64.0004Z" fill="url(#paint1_linear_181_33905)"/>
<path d="M59.4999 27.9434V58.2368C59.4999 61.4201 56.928 64.0001 53.7603 64.0001H51.1368L41.5651 40.5388H41.5766L36.9998 27.9434H59.4999Z" fill="url(#paint2_linear_181_33905)"/>
<path d="M30.5499 50.6465L16.029 63.9659C7.36806 63.4718 0.5 56.2719 0.5 47.4574V22.9561L19.5518 40.5104L19.5404 40.5334L30.5499 50.6465Z" fill="url(#paint3_linear_181_33905)"/>
<path d="M34.2732 0L19.5518 40.51L0.5 22.9556V16.543C0.5 7.40672 7.88359 0 16.9914 0H34.2732Z" fill="url(#paint4_linear_181_33905)"/>
</g>
<defs>
<linearGradient id="paint0_linear_181_33905" x1="74.5001" y1="3.56824e-07" x2="27.2198" y2="22.8496" gradientUnits="userSpaceOnUse">
<stop stop-color="#FFF33B"/>
<stop offset="0.67" stop-color="#F3903F"/>
<stop offset="0.89" stop-color="#ED683C"/>
<stop offset="1" stop-color="#FF7345"/>
</linearGradient>
<linearGradient id="paint1_linear_181_33905" x1="16.0291" y1="52.2668" x2="51.1369" y2="52.2668" gradientUnits="userSpaceOnUse">
<stop stop-color="#FFF33B"/>
<stop offset="0.04" stop-color="#FEE62D"/>
<stop offset="0.12" stop-color="#FDD51B"/>
<stop offset="0.2" stop-color="#FDCA0F"/>
<stop offset="0.28" stop-color="#FDC70C"/>
<stop offset="0.807231" stop-color="#FF7345"/>
</linearGradient>
<linearGradient id="paint2_linear_181_33905" x1="36.9998" y1="48.4433" x2="59.4999" y2="43.5059" gradientUnits="userSpaceOnUse">
<stop stop-color="#FFF33B"/>
<stop offset="0.04" stop-color="#FEE62D"/>
<stop offset="0.809505" stop-color="#F3903F"/>
<stop offset="1" stop-color="#FF7345"/>
</linearGradient>
<linearGradient id="paint3_linear_181_33905" x1="-4" y1="38.0005" x2="30.5499" y2="43.4639" gradientUnits="userSpaceOnUse">
<stop stop-color="#FFF33B"/>
<stop offset="0.04" stop-color="#FEE62D"/>
<stop offset="0.12" stop-color="#FDD51B"/>
<stop offset="0.2" stop-color="#FDCA0F"/>
<stop offset="0.28" stop-color="#FDC70C"/>
<stop offset="0.720646" stop-color="#F3903F"/>
<stop offset="0.83854" stop-color="#FF7345"/>
</linearGradient>
<linearGradient id="paint4_linear_181_33905" x1="25.8091" y1="-4.16974" x2="16.6178" y2="36.5266" gradientUnits="userSpaceOnUse">
<stop stop-color="#FFF33B"/>
<stop offset="0.04" stop-color="#FEE62D"/>
<stop offset="0.649052" stop-color="#F3903F"/>
<stop offset="0.886762" stop-color="#FF7345"/>
</linearGradient>
<clipPath id="clip0_181_33905">
<rect width="59" height="64" fill="white" transform="translate(0.5)"/>
</clipPath>
</defs>
</svg>
